<svg width="254" height="267" viewBox="0 0 254 267" fill="none" xmlns="http://www.w3.org/2000/svg">
<path d="M0.00999975 125.555C1.97 100.045 10.36 77.2953 25.54 57.1353C37.2 41.6453 53.08 31.3453 70.27 22.9653C88.7 13.9853 108.03 7.83526 128.37 4.91526C130.88 4.55526 133.15 2.73526 135.65 1.98526C149.97 -2.36474 162.97 0.705262 175.46 8.54526C215.6 33.7553 240.27 69.7653 250.26 115.785C255.15 138.315 254.22 161.015 249.26 183.555C247.63 190.975 247.31 198.795 244.9 205.925C235.21 234.585 213.85 251.395 185.95 259.855C148.44 271.235 112.57 267.465 79.23 245.415C72.81 241.165 65 239.055 58.34 235.115C29.61 218.115 12.08 192.695 4.69 160.465C2.07 149.065 1.5 137.205 0 125.555H0.00999975ZM173.8 237.585L174.23 236.695C178.6 235.835 182.95 234.755 187.36 234.155C192.42 233.475 195.4 230.805 197.88 226.355C210.14 204.415 214.74 180.925 213.67 155.985C212.53 129.405 205.25 104.695 191.35 82.1153C186.71 74.5753 181.35 66.9953 174.72 61.2953C163.42 51.5953 150.92 43.2853 138.77 34.6053C136.83 33.2253 133.91 32.0553 131.7 32.4053C117 34.7453 102.39 37.6653 87.7 40.1053C78.05 41.7153 70.29 45.7553 65.51 54.6953C64.19 57.1653 62.15 59.2353 60.55 61.5553C52.07 73.8453 42.93 85.9653 40.26 101.025C39.08 107.715 40.75 114.845 40.45 121.755C39.32 147.595 48.97 169.165 66.58 187.355C84.98 206.365 107.53 218.965 132.55 226.905C146.07 231.195 160.04 234.065 173.81 237.575L173.8 237.585Z" fill="black"/>
</svg>
