<svg width="303" height="270" viewBox="0 0 303 270" fill="none" xmlns="http://www.w3.org/2000/svg">
<path d="M266.93 0.0100098C269.86 3.66001 272.56 7.00999 276.06 11.37C245.82 46.8 215.61 82.19 185.16 117.86C223.72 157.65 262.65 197.83 302.09 238.53C297.53 242.4 293.22 246.81 288.21 250.16C275.62 258.58 261.63 257.58 249.87 246.66C241.63 239 234.35 230.25 227.07 221.62C218.62 211.59 210.55 201.44 200.4 192.78C189.69 183.65 180.81 172.38 171.13 162.06C166.46 157.08 161.79 152.12 156.78 146.79C154.22 149.37 151.83 151.8 149.42 154.2C130.44 173.16 111.4 192.05 92.54 211.13C89.79 213.91 87.87 217.51 85.6 220.75C76.02 234.41 63.72 245.34 50.57 255.37C45.04 259.58 39.11 263.26 33.35 267.17C32.8 267.54 32.21 267.87 31.61 268.15C25.95 270.78 19.83 270.61 17.78 267.16C15.14 262.73 16.15 258.14 19.27 254.25C24.48 247.77 29.57 241.15 35.32 235.17C68.81 200.35 102.48 165.69 136.09 130.98C136.77 130.28 137.4 129.52 138.32 128.5C97.17 87.65 52.78 51.52 0 25.13C13.01 16.41 25.24 8.22001 37.49 0.0100098C61.08 13.57 83.8 28.3 104.72 45.56C125.49 62.71 145.76 80.46 166.73 98.35C176.44 87.32 186.95 75.98 196.78 64.09C209.39 48.84 221.16 32.89 233.94 17.78C237.74 13.28 243.41 10.05 248.75 7.23001C254.4 4.24001 260.68 2.43 266.94 0L266.93 0.0100098Z" fill="black"/>
</svg>
